<svg width="46" height="46" xmlns="http://www.w3.org/2000/svg">
 <!-- Created with Method Draw - http://github.com/duopixel/Method-Draw/ -->

 <g>
  <title>background</title>
  <rect x="-1" y="-1" width="48" height="48" id="canvas_background" fill="none"/>
  <g id="canvasGrid" display="none">
   <rect id="svg_1" width="100%" height="100%" x="0" y="0" stroke-width="0" fill="url(#gridpattern)"/>
  </g>
 </g>
 <g>
  <title>Layer 1</title>
  <g id="svg_6">
   <path d="m40.707279,0l-34.72222,0c-3.19163,0 -5.78704,2.59541 -5.78704,5.78704l0,34.72222c0,3.19163 2.59541,5.78703 5.78704,5.78703l34.72222,0c3.19163,0 5.78703,-2.5954 5.78703,-5.78703l0,-34.72222c0,-3.19163 -2.5954,-5.78704 -5.78703,-5.78704zm-34.72222,3.85802l34.72222,0c1.06387,0 1.92901,0.86514 1.92901,1.92902l0,13.66886l-6.35218,-6.35218c-0.75352,-0.75305 -1.97422,-0.75305 -2.72774,0l-13.58598,13.58597l-4.90541,-4.90542c-0.75352,-0.75305 -1.97423,-0.75305 -2.72775,0l-8.28119,8.28119l0,-24.27842c0,-1.06388 0.86514,-1.92902 1.92902,-1.92902zm34.72222,38.58025l-34.72222,0c-1.06388,0 -1.92902,-0.86514 -1.92902,-1.92901l0,-4.98831l9.64507,-9.64506l11.1747,11.17377c0.37723,0.37817 0.86985,0.56608 1.36387,0.56608s0.98664,-0.18791 1.36388,-0.56514c0.75305,-0.75352 0.75305,-1.97423 0,-2.72775l-4.90542,-4.90541l12.2221,-12.22116l7.71605,7.71605l0,15.59693c0,1.06387 -0.86514,1.92901 -1.92901,1.92901zm0,0" id="svg_4" fill="#4b75b9"/>
   <path d="m15.630119,11.57407c0,2.13058 -1.72745,3.85803 -3.85803,3.85803s-3.85802,-1.72745 -3.85802,-3.85803s1.72745,-3.85802 3.85802,-3.85802s3.85803,1.72745 3.85803,3.85802zm0,0" id="svg_5" fill="#4b75b9"/>
  </g>
 </g>
</svg>