<svg width="46" height="46" xmlns="http://www.w3.org/2000/svg">
 <!-- Created with Method Draw - http://github.com/duopixel/Method-Draw/ -->

 <g>
  <title>background</title>
  <rect fill="#fff" id="canvas_background" height="48" width="48" y="-1" x="-1"/>
  <g display="none" overflow="visible" y="0" x="0" height="100%" width="100%" id="canvasGrid">
   <rect fill="url(#gridpattern)" stroke-width="0" y="0" x="0" height="100%" width="100%"/>
  </g>
 </g>
 <g>
  <title>Layer 1</title>
  <g id="svg_6">
   <path fill="#4b75b9" id="svg_4" d="m40.509256,0l-34.72222,0c-3.19163,0 -5.787037,2.595406 -5.787037,5.787037l0,34.72222c0,3.19163 2.595406,5.787037 5.787037,5.787037l34.72222,0c3.19163,0 5.787037,-2.595406 5.787037,-5.787037l0,-34.72222c0,-3.19163 -2.595406,-5.787037 -5.787037,-5.787037zm-34.72222,3.858024l34.72222,0c1.063877,0 1.929012,0.865135 1.929012,1.929012l0,13.66886l-6.352177,-6.352177c-0.75352,-0.753049 -1.974223,-0.753049 -2.727744,0l-13.585973,13.585973l-4.905418,-4.905418c-0.75352,-0.753049 -1.974223,-0.753049 -2.727744,0l-8.281189,8.281189l0,-24.278427c0,-1.063877 0.865135,-1.929012 1.929012,-1.929012zm34.72222,38.580244l-34.72222,0c-1.063877,0 -1.929012,-0.865135 -1.929012,-1.929012l0,-4.988305l9.645061,-9.645061l11.174707,11.173766c0.377232,0.378173 0.869845,0.566082 1.363872,0.566082s0.98664,-0.187909 1.363872,-0.56514c0.753049,-0.75352 0.753049,-1.974223 0,-2.727744l-4.905418,-4.905418l12.222101,-12.221159l7.716049,7.716049l0,15.59693c0,1.063877 -0.865135,1.929012 -1.929012,1.929012zm0,0"/>
   <path fill="#4b75b9" id="svg_5" d="m15.432098,11.574073c0,2.13058 -1.727445,3.858024 -3.858024,3.858024s-3.858024,-1.727445 -3.858024,-3.858024s1.727446,-3.858024 3.858024,-3.858024s3.858024,1.727446 3.858024,3.858024zm0,0"/>
  </g>
 </g>
</svg>