<svg width="70" height="43" xmlns="http://www.w3.org/2000/svg">
 <!-- Created with Method Draw - http://github.com/duopixel/Method-Draw/ -->

 <g>
  <title>background</title>
  <rect fill="none" id="canvas_background" height="45" width="72" y="-1" x="-1"/>
  <g display="none" overflow="visible" y="0" x="0" height="100%" width="100%" id="canvasGrid">
   <rect fill="url(#gridpattern)" stroke-width="0" y="0" x="0" height="100%" width="100%"/>
  </g>
 </g>
 <g>
  <title>Layer 1</title>
  <g id="svg_23">
   <g transform="matrix(0.2712673404150543,0,0,0.2712673404150543,0,0) " id="svg_5">
    <g id="svg_6">
     <polygon fill="#ffffff" id="svg_7" points="225.81317138671875,0 128.00018310546875,97.81304931640625 30.18707275390625,0 0.00006103515625,30.18603515625 128.00018310546875,158.18603515625 256.00018310546875,30.18603515625 "/>
    </g>
   </g>
   <g transform="matrix(0.2712673404150543,0,0,0.2712673404150543,0,0) " id="svg_8"/>
   <g transform="matrix(0.2712673404150543,0,0,0.2712673404150543,0,0) " id="svg_9"/>
   <g transform="matrix(0.2712673404150543,0,0,0.2712673404150543,0,0) " id="svg_10"/>
   <g transform="matrix(0.2712673404150543,0,0,0.2712673404150543,0,0) " id="svg_11"/>
   <g transform="matrix(0.2712673404150543,0,0,0.2712673404150543,0,0) " id="svg_12"/>
   <g transform="matrix(0.2712673404150543,0,0,0.2712673404150543,0,0) " id="svg_13"/>
   <g transform="matrix(0.2712673404150543,0,0,0.2712673404150543,0,0) " id="svg_14"/>
   <g transform="matrix(0.2712673404150543,0,0,0.2712673404150543,0,0) " id="svg_15"/>
   <g transform="matrix(0.2712673404150543,0,0,0.2712673404150543,0,0) " id="svg_16"/>
   <g transform="matrix(0.2712673404150543,0,0,0.2712673404150543,0,0) " id="svg_17"/>
   <g transform="matrix(0.2712673404150543,0,0,0.2712673404150543,0,0) " id="svg_18"/>
   <g transform="matrix(0.2712673404150543,0,0,0.2712673404150543,0,0) " id="svg_19"/>
   <g transform="matrix(0.2712673404150543,0,0,0.2712673404150543,0,0) " id="svg_20"/>
   <g transform="matrix(0.2712673404150543,0,0,0.2712673404150543,0,0) " id="svg_21"/>
   <g transform="matrix(0.2712673404150543,0,0,0.2712673404150543,0,0) " id="svg_22"/>
  </g>
 </g>
</svg>