<?xml version="1.0" encoding="utf-8"?>
<svg width="46" height="46" xmlns="http://www.w3.org/2000/svg">
  <g transform="matrix(1, 0, 0, 1, -5, -6)">
    <title>Layer 1</title>
    <g id="svg_23">
      <g transform="matrix(0.08857274969753437,0,0,0.08857274969753437,0,0) " id="svg_5">
        <g id="svg_6">
          <path fill="#3261ab" id="svg_7" d="m470.619208,243.063528l-416,-192c-6.624,-3.008 -14.528,-1.216 -19.136,4.48c-4.64,5.696 -4.8,13.792 -0.384,19.648l136.8,182.4l-136.8,182.4c-4.416,5.856 -4.256,13.984 0.352,19.648c3.104,3.872 7.744,5.952 12.448,5.952c2.272,0 4.544,-0.48 6.688,-1.472l416,-192c5.696,-2.624 9.312,-8.288 9.312,-14.528s-3.616,-11.904 -9.28,-14.528z"/>
        </g>
      </g>
      <g transform="matrix(0.08857274969753437,0,0,0.08857274969753437,0,0) " id="svg_8"/>
      <g transform="matrix(0.08857274969753437,0,0,0.08857274969753437,0,0) " id="svg_9"/>
      <g transform="matrix(0.08857274969753437,0,0,0.08857274969753437,0,0) " id="svg_10"/>
      <g transform="matrix(0.08857274969753437,0,0,0.08857274969753437,0,0) " id="svg_11"/>
      <g transform="matrix(0.08857274969753437,0,0,0.08857274969753437,0,0) " id="svg_12"/>
      <g transform="matrix(0.08857274969753437,0,0,0.08857274969753437,0,0) " id="svg_13"/>
      <g transform="matrix(0.08857274969753437,0,0,0.08857274969753437,0,0) " id="svg_14"/>
      <g transform="matrix(0.08857274969753437,0,0,0.08857274969753437,0,0) " id="svg_15"/>
      <g transform="matrix(0.08857274969753437,0,0,0.08857274969753437,0,0) " id="svg_16"/>
      <g transform="matrix(0.08857274969753437,0,0,0.08857274969753437,0,0) " id="svg_17"/>
      <g transform="matrix(0.08857274969753437,0,0,0.08857274969753437,0,0) " id="svg_18"/>
      <g transform="matrix(0.08857274969753437,0,0,0.08857274969753437,0,0) " id="svg_19"/>
      <g transform="matrix(0.08857274969753437,0,0,0.08857274969753437,0,0) " id="svg_20"/>
      <g transform="matrix(0.08857274969753437,0,0,0.08857274969753437,0,0) " id="svg_21"/>
      <g transform="matrix(0.08857274969753437,0,0,0.08857274969753437,0,0) " id="svg_22"/>
    </g>
  </g>
</svg>