<svg width="35" height="22" xmlns="http://www.w3.org/2000/svg">
 <!-- Created with Method Draw - http://github.com/duopixel/Method-Draw/ -->

 <g>
  <title>background</title>
  <rect fill="none" id="canvas_background" height="24" width="37" y="-1" x="-1"/>
  <g display="none" overflow="visible" y="0" x="0" height="100%" width="100%" id="canvasGrid">
   <rect fill="url(#gridpattern)" stroke-width="0" y="0" x="0" height="100%" width="100%"/>
  </g>
 </g>
 <g>
  <title>Layer 1</title>
  <g id="svg_23">
   <g transform="matrix(0.06959963613043385,0,0,0.06959963613043385,0,0) " id="svg_5">
    <g id="svg_6">
     <path fill="#ffffff" id="svg_7" d="m437.099223,141.199597c14.8,-10.4 24.6,-27.7 24.6,-47.2c0,-31.9 -25.8,-57.7 -57.7,-57.7c-31.9,0 -57.7,25.8 -57.7,57.7c0,19.5 9.7,36.8 24.6,47.2c-12.7,4.4 -24.3,11.2 -34.1,20c-13.5,-11.5 -29.4,-20.3 -46.8,-25.5c21.1,-12.8 35.3,-36.1 35.3,-62.6c0,-40.4 -32.7,-73.1 -73.1,-73.1c-40.4,0 -73.1,32.8 -73.1,73.1c0,26.5 14.1,49.8 35.3,62.6c-17.2,5.2 -32.9,13.9 -46.3,25.2c-9.8,-8.6 -21.2,-15.3 -33.7,-19.6c14.8,-10.4 24.6,-27.7 24.6,-47.2c0,-31.9 -25.8,-57.7 -57.7,-57.7s-57.7,25.8 -57.7,57.7c0,19.5 9.7,36.8 24.6,47.2c-39.7,13.7 -68.2,51.4 -68.2,95.7l0,6.6c0,0.2 0.2,0.4 0.4,0.4l122.3,0c-0.7,5.5 -1.1,11.2 -1.1,16.9l0,6.8c0,29.4 23.8,53.2 53.2,53.2l155,0c29.4,0 53.2,-23.8 53.2,-53.2l0,-6.8c0,-5.7 -0.4,-11.4 -1.1,-16.9l123.1,0c0.2,0 0.4,-0.2 0.4,-0.4l0,-6.6c-0.2,-44.4 -28.6,-82.1 -68.3,-95.8zm-74.8,-47.3c0,-23 18.7,-41.7 41.7,-41.7s41.7,18.7 41.7,41.7c0,22.7 -18.3,41.2 -40.9,41.7c-0.3,0 -0.5,0 -0.8,0s-0.5,0 -0.8,0c-22.7,-0.4 -40.9,-18.9 -40.9,-41.7zm-167.4,-20.8c0,-31.5 25.6,-57.1 57.1,-57.1s57.1,25.6 57.1,57.1c0,30.4 -23.9,55.3 -53.8,57c-1.1,0 -2.2,0 -3.3,0c-1.1,0 -2.2,0 -3.3,0c-29.9,-1.7 -53.8,-26.6 -53.8,-57zm-135.6,20.8c0,-23 18.7,-41.7 41.7,-41.7s41.7,18.7 41.7,41.7c0,22.7 -18.3,41.2 -40.9,41.7c-0.3,0 -0.5,0 -0.8,0s-0.5,0 -0.8,0c-22.6,-0.4 -40.9,-18.9 -40.9,-41.7zm66.2,134l-109.3,0c4.5,-42.6 40.5,-76 84.2,-76.3c0.2,0 0.4,0 0.6,0s0.4,0 0.6,0c20.8,0.1 39.8,7.8 54.5,20.3c-14.4,15.6 -25.1,34.8 -30.6,56zm241.3,39.8c0,20.5 -16.7,37.2 -37.2,37.2l-155,0c-20.5,0 -37.2,-16.7 -37.2,-37.2l0,-6.8c0,-62.1 49.6,-112.9 111.3,-114.7c1.1,0.1 2.3,0.1 3.4,0.1s2.3,0 3.4,-0.1c61.7,1.8 111.3,52.6 111.3,114.7l0,6.8zm11.9,-39.8c-5.5,-21.1 -16,-40 -30.3,-55.6c14.8,-12.8 34,-20.5 55,-20.7c0.2,0 0.4,0 0.6,0s0.4,0 0.6,0c43.7,0.3 79.7,33.7 84.2,76.3l-110.1,0z"/>
    </g>
   </g>
   <g transform="matrix(0.06959963613043385,0,0,0.06959963613043385,0,0) " id="svg_8"/>
   <g transform="matrix(0.06959963613043385,0,0,0.06959963613043385,0,0) " id="svg_9"/>
   <g transform="matrix(0.06959963613043385,0,0,0.06959963613043385,0,0) " id="svg_10"/>
   <g transform="matrix(0.06959963613043385,0,0,0.06959963613043385,0,0) " id="svg_11"/>
   <g transform="matrix(0.06959963613043385,0,0,0.06959963613043385,0,0) " id="svg_12"/>
   <g transform="matrix(0.06959963613043385,0,0,0.06959963613043385,0,0) " id="svg_13"/>
   <g transform="matrix(0.06959963613043385,0,0,0.06959963613043385,0,0) " id="svg_14"/>
   <g transform="matrix(0.06959963613043385,0,0,0.06959963613043385,0,0) " id="svg_15"/>
   <g transform="matrix(0.06959963613043385,0,0,0.06959963613043385,0,0) " id="svg_16"/>
   <g transform="matrix(0.06959963613043385,0,0,0.06959963613043385,0,0) " id="svg_17"/>
   <g transform="matrix(0.06959963613043385,0,0,0.06959963613043385,0,0) " id="svg_18"/>
   <g transform="matrix(0.06959963613043385,0,0,0.06959963613043385,0,0) " id="svg_19"/>
   <g transform="matrix(0.06959963613043385,0,0,0.06959963613043385,0,0) " id="svg_20"/>
   <g transform="matrix(0.06959963613043385,0,0,0.06959963613043385,0,0) " id="svg_21"/>
   <g transform="matrix(0.06959963613043385,0,0,0.06959963613043385,0,0) " id="svg_22"/>
  </g>
 </g>
</svg>